<svg height='300px' width='300px' fill="#09509d" xmlns="http://www.w3.org/2000/svg" xmlns:xlink="http://www.w3.org/1999/xlink" version="1.1" x="0px" y="0px" viewBox="0 0 100 100" style="enable-background:new 0 0 100 100" xml:space="preserve"><g><path d="M42.563,70.388l-2.798,0.004l-0.019-14.675l14.641-0.019v-9.734c0-1.475-1.196-2.671-2.672-2.671H46.65V27.576   c0-10.911-8.876-19.787-19.787-19.787c-10.91,0-19.786,8.876-19.786,19.787v15.717H2.671C1.196,43.293,0,44.489,0,45.964v43.575   c0,1.476,1.196,2.672,2.671,2.672h49.044c1.476,0,2.672-1.196,2.672-2.672V78.568l-11.813,0.015L42.563,70.388z M33.177,78.916   H20.342l2.473-12.165c-1.505-1.175-2.473-3.004-2.473-5.061c0-3.544,2.873-6.417,6.417-6.417c3.544,0,6.417,2.873,6.417,6.417   c0,2.057-0.968,3.886-2.473,5.061L33.177,78.916z M38.405,43.293H15.322V27.576c0-6.364,5.177-11.542,11.542-11.542   c6.365,0,11.542,5.178,11.542,11.542V43.293z M100,62.979c-0.01-7.646-4.857-13.863-10.807-13.857   c-4.75,0.007-8.779,3.982-10.21,9.476l-36.122,0.046l0.012,8.815l2.798-0.003l0.01,8.194l7.445-0.009l-0.011-8.194l3.544-0.005   l0.009,5.914h6.055l-0.007-5.921l16.277-0.021c1.445,5.49,5.485,9.456,10.234,9.451C95.178,76.855,100.009,70.627,100,62.979z    M89.223,72.155c-3.297,0.004-6.085-4.188-6.092-9.154c-0.006-4.966,2.773-9.165,6.068-9.169c3.296-0.004,6.084,4.188,6.092,9.152   C95.296,67.952,92.518,72.15,89.223,72.155z"></path>
  <text x="50" y="40" fill="#09509d" style="font-weight:bold;font-size:14">OAuth2</text></g></svg>
